<svg xmlns="http://www.w3.org/2000/svg" viewBox="0 0 420 420" role="img" aria-label="猪苗代周辺の地図。ラーメン館の西に牧場、南東の湖畔にサウナ、北側に買い出し先と宿の概略エリア。"><defs><marker id="arrow" markerWidth="5" markerHeight="5" refX="3" refY="2.5" orient="auto"><path d="M0 0 L4 2.5 L0 5" fill="none" stroke="#53725b" stroke-width="1"/></marker></defs><rect width="420" height="420" rx="6" fill="#f1f2e9"/><g fill="none" stroke="#dce3d3" stroke-width="1"><path d="M-40 80 C60 -40 110 30 168 125 S250 260 330 190 S400 80 450 80"/><path d="M-40 100 C60 -20 105 55 148 145 S255 290 340 215 S410 110 450 110"/><path d="M-40 120 C50 10 85 70 126 165 S250 320 350 240 S430 140 470 140"/><path d="M-50 150 C45 45 65 100 107 185 S248 350 362 265 S430 175 470 175"/></g><g font-family="'Hiragino Kaku Gothic ProN','Yu Gothic',sans-serif" fill="#344c42"><g transform="translate(381 27)"><path d="M0 22V5M-4 11L0 5L4 11" stroke="#657d69" fill="none" stroke-width="1.3"/><text x="0" y="0" text-anchor="middle" font-size="10">N</text></g><path d="M97 241 C115 215 131 211 151 216 C173 221 188 211 206 221 C224 227 235 251 257 262 C271 270 281 286 282 300 C275 324 296 346 289 384 L300 440 H45 C45 396 57 361 69 322 C78 294 85 267 97 241Z" fill="#c4dade" stroke="#b2cdd0"/><text x="175" y="347" font-size="19" fill="#64848b" text-anchor="middle">猪苗代湖</text><text x="175" y="367" font-size="8" fill="#7b999d" text-anchor="middle">LAKE INAWASHIRO</text><path d="M30 138 Q180 103 366 167" fill="none" stroke="#fffef7" stroke-width="11"/><path d="M93 180 C149 191 221 190 254 253 L282 295" fill="none" stroke="#fffef7" stroke-width="11"/><path d="M147 194 L153 160 L123 148 L91 170 L82 195" fill="none" stroke="#58785f" stroke-width="3" stroke-linecap="round" stroke-linejoin="round" stroke-dasharray=""/><path d="M82 195 L91 170 L123 148 L158 166 L175 194 L224 198 L254 253 L282 295" fill="none" stroke="#87a17c" stroke-width="3" stroke-linecap="round" stroke-linejoin="round" stroke-dasharray="5 4"/><path d="M289 295 L264 247 L232 202 L214 158" fill="none" stroke="#aa8567" stroke-width="3" stroke-linecap="round" stroke-linejoin="round" stroke-dasharray=""/><text x="42" y="127" font-size="10" fill="#83917e" text-anchor="start">磐越道</text><circle cx="236" cy="58" r="33" fill="#e4ebdd" stroke="#93a587" stroke-dasharray="4 4"/><text x="236" y="56" font-size="12" fill="#53725b" text-anchor="middle">05</text><text x="236" y="72" font-size="9" fill="#718069" text-anchor="middle">宿のエリア</text><text x="283" y="57" font-size="13" fill="#344c42" text-anchor="start">ログハウス</text><text x="283" y="74" font-size="9" fill="#7f8978" text-anchor="start">公式地図の概略位置</text><circle cx="146.8" cy="193.8" r="13" fill="#53725b" stroke="#f8f8f0" stroke-width="3"/><text x="146.8" y="197.8" font-size="10" fill="#fff" text-anchor="middle">01</text><circle cx="82.4" cy="195.1" r="13" fill="#53725b" stroke="#f8f8f0" stroke-width="3"/><text x="82.4" y="199.1" font-size="10" fill="#fff" text-anchor="middle">02</text><circle cx="286.7" cy="295.3" r="13" fill="#53725b" stroke="#f8f8f0" stroke-width="3"/><text x="286.7" y="299.3" font-size="10" fill="#fff" text-anchor="middle">03</text><circle cx="210.1" cy="147.0" r="13" fill="#53725b" stroke="#f8f8f0" stroke-width="3"/><text x="210.1" y="151.0" font-size="10" fill="#fff" text-anchor="middle">04</text><text x="20" y="223" font-size="14" fill="#344c42" text-anchor="start">南ヶ丘牧場</text><text x="157" y="185" font-size="14" fill="#344c42" text-anchor="start">ラーメン館</text><text x="220" y="135" font-size="14" fill="#344c42" text-anchor="start">ヨークベニマル</text><text x="289" y="308" font-size="14" fill="#344c42" text-anchor="start">Roots 湖畔</text><text x="289" y="327" font-size="10" fill="#778979" text-anchor="start">サウナ・カフェ</text><path d="M25 379v4h98.8v-4" fill="none" stroke="#7c8c7c"/><text x="25" y="400" font-size="10" fill="#718172" text-anchor="start">約5 km</text></g></svg>